<svg id="visual" viewBox="0 0 1920 1080" width="1920" height="1080" xmlns="http://www.w3.org/2000/svg" xmlns:xlink="http://www.w3.org/1999/xlink" version="1.1"><rect x="0" y="0" width="1920" height="1080" fill="#9ccc65"></rect><defs><linearGradient id="grad1_0" x1="43.8%" y1="0%" x2="100%" y2="100%"><stop offset="14.444444444444446%" stop-color="#9ccc65" stop-opacity="1"></stop><stop offset="85.55555555555554%" stop-color="#9ccc65" stop-opacity="1"></stop></linearGradient></defs><defs><linearGradient id="grad2_0" x1="0%" y1="0%" x2="56.3%" y2="100%"><stop offset="14.444444444444446%" stop-color="#9ccc65" stop-opacity="1"></stop><stop offset="85.55555555555554%" stop-color="#9ccc65" stop-opacity="1"></stop></linearGradient></defs><g transform="translate(1920, 0)"><path d="M0 702C-65.5 660.3 -131 618.5 -191.6 589.7C-252.2 560.8 -308 544.8 -379.7 522.6C-451.4 500.5 -539.1 472.2 -567.9 412.6C-596.7 353 -566.7 262.2 -579.2 188.2C-591.7 114.2 -646.9 57.1 -702 0L0 0Z" fill="#eeeeee"></path></g><g transform="translate(0, 1080)"><path d="M0 -702C75.5 -697.2 151 -692.4 216.9 -667.6C282.8 -642.8 339.1 -598 403.8 -555.8C468.5 -513.5 541.6 -473.8 564.7 -410.3C587.8 -346.7 560.8 -259.3 575.4 -187C589.9 -114.6 646 -57.3 702 0L0 0Z" fill="#eeeeee"></path></g></svg>