<svg id="visual" viewBox="0 0 1920 1080" width="1920" height="1080" xmlns="http://www.w3.org/2000/svg" xmlns:xlink="http://www.w3.org/1999/xlink" version="1.1"><rect x="0" y="0" width="1920" height="1080" fill="#131313"></rect><defs><linearGradient id="grad1_0" x1="43.8%" y1="0%" x2="100%" y2="100%"><stop offset="14.444444444444446%" stop-color="#131313" stop-opacity="1"></stop><stop offset="85.55555555555554%" stop-color="#131313" stop-opacity="1"></stop></linearGradient></defs><defs><linearGradient id="grad2_0" x1="0%" y1="0%" x2="56.3%" y2="100%"><stop offset="14.444444444444446%" stop-color="#131313" stop-opacity="1"></stop><stop offset="85.55555555555554%" stop-color="#131313" stop-opacity="1"></stop></linearGradient></defs><g transform="translate(1920, 0)"><path d="M0 702C-57.4 644.5 -114.9 586.9 -186 572.5C-257.2 558.1 -342.1 586.9 -412.6 567.9C-483.1 548.9 -539.2 482.2 -567.1 412C-595 341.9 -594.7 268.3 -612.5 199C-630.3 129.8 -666.1 64.9 -702 0L0 0Z" fill="#1f1f1f"></path></g><g transform="translate(0, 1080)"><path d="M0 -702C68.2 -684.3 136.4 -666.6 211.4 -650.5C286.4 -634.5 368.2 -620.1 412.6 -567.9C457.1 -515.7 464.1 -425.6 498.4 -362.1C532.6 -298.5 594 -261.4 632.5 -205.5C670.9 -149.6 686.5 -74.8 702 0L0 0Z" fill="#1f1f1f"></path></g></svg>